<svg width="42" height="42" viewBox="0 0 42 42" fill="none" xmlns="http://www.w3.org/2000/svg">
<circle cx="37.3369" cy="5.5" r="3.5" fill="#C32323"/>
<path d="M17.5 36.75H24.5C24.5 38.675 22.925 40.25 21 40.25C19.075 40.25 17.5 38.675 17.5 36.75ZM36.75 33.25V35H5.25V33.25L8.75 29.75V19.25C8.75 13.825 12.25 9.1 17.5 7.525V7C17.5 5.075 19.075 3.5 21 3.5C22.925 3.5 24.5 5.075 24.5 7V7.525C29.75 9.1 33.25 13.825 33.25 19.25V29.75L36.75 33.25ZM29.75 19.25C29.75 14.35 25.9 10.5 21 10.5C16.1 10.5 12.25 14.35 12.25 19.25V31.5H29.75V19.25Z" fill="black"/>
</svg>
