<svg width="36" height="36" viewBox="0 0 36 36" fill="none" xmlns="http://www.w3.org/2000/svg">
<path d="M16.5 12H19.5C23.742 12 25.8645 12 27.1815 13.3185C28.5 14.6355 28.5 16.758 28.5 21C28.5 25.242 28.5 27.3645 27.1815 28.6815C25.8645 30 23.742 30 19.5 30H18C18 30 17.25 33 12 33C12 33 13.5 31.4865 13.5 29.9745C11.1705 29.904 9.78 29.6445 8.8185 28.6815C7.5 27.3645 7.5 25.242 7.5 21C7.5 16.758 7.5 14.6355 8.8185 13.3185C10.1355 12 12.258 12 16.5 12ZM28.5 17.25H29.25C30.6525 17.25 31.353 17.25 31.875 17.5515C32.217 17.749 32.501 18.033 32.6985 18.375C33 18.897 33 19.5975 33 21C33 22.4025 33 23.103 32.6985 23.625C32.501 23.967 32.217 24.251 31.875 24.4485C31.353 24.75 30.6525 24.75 29.25 24.75H28.5M7.5 17.25H6.75C5.3475 17.25 4.647 17.25 4.125 17.5515C3.78299 17.749 3.49897 18.033 3.3015 18.375C3 18.897 3 19.5975 3 21C3 22.4025 3 23.103 3.3015 23.625C3.49897 23.967 3.78299 24.251 4.125 24.4485C4.647 24.75 5.3475 24.75 6.75 24.75H7.5M20.25 5.25C20.25 5.84674 20.0129 6.41903 19.591 6.84099C19.169 7.26295 18.5967 7.5 18 7.5C17.4033 7.5 16.831 7.26295 16.409 6.84099C15.9871 6.41903 15.75 5.84674 15.75 5.25C15.75 4.65326 15.9871 4.08097 16.409 3.65901C16.831 3.23705 17.4033 3 18 3C18.5967 3 19.169 3.23705 19.591 3.65901C20.0129 4.08097 20.25 4.65326 20.25 5.25ZM18 7.5V12V7.5ZM13.5 18V19.5V18ZM22.5 18V19.5V18Z" fill="white"/>
<path d="M28.5 17.25H29.25C30.6525 17.25 31.353 17.25 31.875 17.5515C32.217 17.749 32.501 18.033 32.6985 18.375C33 18.897 33 19.5975 33 21C33 22.4025 33 23.103 32.6985 23.625C32.501 23.967 32.217 24.251 31.875 24.4485C31.353 24.75 30.6525 24.75 29.25 24.75H28.5M7.5 17.25H6.75C5.3475 17.25 4.647 17.25 4.125 17.5515C3.78299 17.749 3.49897 18.033 3.3015 18.375C3 18.897 3 19.5975 3 21C3 22.4025 3 23.103 3.3015 23.625C3.49897 23.967 3.78299 24.251 4.125 24.4485C4.647 24.75 5.3475 24.75 6.75 24.75H7.5M18 7.5C18.5967 7.5 19.169 7.26295 19.591 6.84099C20.0129 6.41903 20.25 5.84674 20.25 5.25C20.25 4.65326 20.0129 4.08097 19.591 3.65901C19.169 3.23705 18.5967 3 18 3C17.4033 3 16.831 3.23705 16.409 3.65901C15.9871 4.08097 15.75 4.65326 15.75 5.25C15.75 5.84674 15.9871 6.41903 16.409 6.84099C16.831 7.26295 17.4033 7.5 18 7.5ZM18 7.5V12M13.5 18V19.5M22.5 18V19.5M16.5 12H19.5C23.742 12 25.8645 12 27.1815 13.3185C28.5 14.6355 28.5 16.758 28.5 21C28.5 25.242 28.5 27.3645 27.1815 28.6815C25.8645 30 23.742 30 19.5 30H18C18 30 17.25 33 12 33C12 33 13.5 31.4865 13.5 29.9745C11.1705 29.904 9.78 29.6445 8.8185 28.6815C7.5 27.3645 7.5 25.242 7.5 21C7.5 16.758 7.5 14.6355 8.8185 13.3185C10.1355 12 12.258 12 16.5 12Z" stroke="#335FEE" stroke-opacity="0.71" stroke-width="1.5" stroke-linecap="round" stroke-linejoin="round"/>
<path d="M15 24.75C15 24.75 16.0005 25.5 18 25.5C19.9995 25.5 21 24.75 21 24.75" stroke="#335FEE" stroke-opacity="0.71" stroke-width="1.5" stroke-linecap="round" stroke-linejoin="round"/>
</svg>
