<svg width="24" height="24" viewBox="0 0 24 24" fill="none" xmlns="http://www.w3.org/2000/svg">
<path d="M12.34 4.75C7.2559 4.75 3.79377 9.52761 5.71131 13.8941L6.53198 15.7605C6.56782 15.8418 6.57434 15.9318 6.55056 16.0169C6.52679 16.102 6.47399 16.1777 6.40004 16.2327L4.66458 17.524C4.59353 17.5769 4.54193 17.6489 4.51692 17.7301C4.4919 17.8113 4.49469 17.8978 4.52491 17.9775C4.55513 18.0571 4.61129 18.1262 4.68562 18.175C4.75996 18.2238 4.84881 18.25 4.9399 18.25H11.8184C12.8272 18.2503 13.8262 18.0663 14.7582 17.7085C15.6903 17.3507 16.5372 16.826 17.2506 16.1646C17.9639 15.5031 18.5298 14.7178 18.9157 13.8534C19.3017 12.9891 19.5002 12.0627 19.5 11.1272C19.5 7.60498 16.4214 4.75 12.6232 4.75H12.34Z" fill="black"/>
</svg>
