<svg width="38" height="36" viewBox="0 0 38 36" fill="none" xmlns="http://www.w3.org/2000/svg">
<path fill-rule="evenodd" clip-rule="evenodd" d="M18.9998 15.5566C22.1215 15.5566 24.9498 16.59 27.0248 18.035C28.9965 19.41 30.6665 21.4533 30.6665 23.6516C30.6665 24.8583 30.1515 25.8583 29.3398 26.6016C28.5765 27.3033 27.5798 27.7583 26.5532 28.0683C24.5015 28.69 21.7998 28.89 18.9998 28.89C16.1998 28.89 13.4982 28.69 11.4465 28.0683C10.4198 27.7583 9.42317 27.3033 8.65817 26.6016C7.84984 25.86 7.33317 24.86 7.33317 23.6533C7.33317 21.455 9.00317 19.4116 10.9748 18.0366C13.0498 16.59 15.8782 15.5566 18.9998 15.5566ZM18.9998 18.89C16.5998 18.89 14.4282 19.69 12.8832 20.7683C11.2348 21.9183 10.6665 23.0883 10.6665 23.6516C10.6665 24.1583 11.2532 24.475 11.7865 24.675L12.1282 24.7916L12.4115 24.8783C13.9782 25.3516 16.2782 25.5566 18.9998 25.5566C21.5132 25.5566 23.6648 25.3816 25.2132 24.9833L25.7198 24.8383L26.0365 24.7383C26.6082 24.5433 27.3332 24.215 27.3332 23.6516C27.3332 23.0883 26.7648 21.9183 25.1165 20.7683C23.5732 19.6916 21.3998 18.89 18.9998 18.89ZM30.6665 17.2233C32.4065 17.2233 33.9865 17.7983 35.1548 18.6116C36.2215 19.3566 37.3332 20.595 37.3332 22.105C37.3332 24.33 35.1715 25.1266 33.2282 25.405L32.7282 25.4666L32.2465 25.5083L32.0165 25.5216C32.2198 24.9466 32.3332 24.3216 32.3332 23.6516C32.3322 23.153 32.2723 22.6562 32.1548 22.1716C32.7982 22.1216 33.3265 22.0383 33.7198 21.92C33.8932 21.8666 33.7365 21.7033 33.5532 21.5616L33.3748 21.4316L33.2482 21.3466C32.7479 21.0052 32.1839 20.7682 31.5898 20.65C30.9565 19.3833 29.9832 18.2866 28.9465 17.4116C29.5113 17.2869 30.088 17.2237 30.6665 17.2233ZM7.33317 17.2233C7.92984 17.2255 8.50317 17.2883 9.05317 17.4116C8.0165 18.2866 7.04317 19.3833 6.40984 20.65C5.81581 20.7682 5.25176 21.0052 4.7515 21.3466L4.53817 21.4933C4.3265 21.6466 4.07817 21.86 4.27984 21.92C4.67317 22.0383 5.2015 22.1233 5.8465 22.1716C5.72687 22.6559 5.66643 23.1528 5.6665 23.6516C5.6665 24.3216 5.77984 24.9466 5.98317 25.5216L5.5165 25.4883L5.02317 25.4383C3.01984 25.1933 0.666504 24.4266 0.666504 22.105C0.666504 20.5966 1.7765 19.3566 2.84484 18.6116C4.16646 17.7063 5.7312 17.2223 7.33317 17.2233ZM29.8332 7.22331C30.9382 7.22331 31.998 7.66229 32.7794 8.4437C33.5609 9.2251 33.9998 10.2849 33.9998 11.39C33.9998 12.495 33.5609 13.5549 32.7794 14.3363C31.998 15.1177 30.9382 15.5566 29.8332 15.5566C28.7281 15.5566 27.6683 15.1177 26.8869 14.3363C26.1055 13.5549 25.6665 12.495 25.6665 11.39C25.6665 10.2849 26.1055 9.2251 26.8869 8.4437C27.6683 7.66229 28.7281 7.22331 29.8332 7.22331ZM8.1665 7.22331C9.27157 7.22331 10.3314 7.66229 11.1128 8.4437C11.8942 9.2251 12.3332 10.2849 12.3332 11.39C12.3332 12.495 11.8942 13.5549 11.1128 14.3363C10.3314 15.1177 9.27157 15.5566 8.1665 15.5566C7.06144 15.5566 6.00163 15.1177 5.22023 14.3363C4.43882 13.5549 3.99984 12.495 3.99984 11.39C3.99984 10.2849 4.43882 9.2251 5.22023 8.4437C6.00163 7.66229 7.06144 7.22331 8.1665 7.22331ZM18.9998 0.556641C20.7679 0.556641 22.4636 1.25902 23.7139 2.50926C24.9641 3.7595 25.6665 5.4552 25.6665 7.22331C25.6665 8.99142 24.9641 10.6871 23.7139 11.9374C22.4636 13.1876 20.7679 13.89 18.9998 13.89C17.2317 13.89 15.536 13.1876 14.2858 11.9374C13.0356 10.6871 12.3332 8.99142 12.3332 7.22331C12.3332 5.4552 13.0356 3.7595 14.2858 2.50926C15.536 1.25902 17.2317 0.556641 18.9998 0.556641ZM29.8332 10.5566C29.6122 10.5566 29.4002 10.6444 29.2439 10.8007C29.0876 10.957 28.9998 11.169 28.9998 11.39C28.9998 11.611 29.0876 11.823 29.2439 11.9792C29.4002 12.1355 29.6122 12.2233 29.8332 12.2233C30.0542 12.2233 30.2661 12.1355 30.4224 11.9792C30.5787 11.823 30.6665 11.611 30.6665 11.39C30.6665 11.169 30.5787 10.957 30.4224 10.8007C30.2661 10.6444 30.0542 10.5566 29.8332 10.5566ZM8.1665 10.5566C7.94549 10.5566 7.73353 10.6444 7.57725 10.8007C7.42097 10.957 7.33317 11.169 7.33317 11.39C7.33317 11.611 7.42097 11.823 7.57725 11.9792C7.73353 12.1355 7.94549 12.2233 8.1665 12.2233C8.38752 12.2233 8.59948 12.1355 8.75576 11.9792C8.91204 11.823 8.99984 11.611 8.99984 11.39C8.99984 11.169 8.91204 10.957 8.75576 10.8007C8.59948 10.6444 8.38752 10.5566 8.1665 10.5566ZM18.9998 3.88997C18.1158 3.88997 17.2679 4.24116 16.6428 4.86628C16.0177 5.49141 15.6665 6.33925 15.6665 7.22331C15.6665 8.10736 16.0177 8.95521 16.6428 9.58033C17.2679 10.2055 18.1158 10.5566 18.9998 10.5566C19.8839 10.5566 20.7317 10.2055 21.3569 9.58033C21.982 8.95521 22.3332 8.10736 22.3332 7.22331C22.3332 6.33925 21.982 5.49141 21.3569 4.86628C20.7317 4.24116 19.8839 3.88997 18.9998 3.88997Z" fill="#335FEE" fill-opacity="0.71"/>
</svg>
