<svg width="24" height="24" viewBox="0 0 24 24" fill="none" xmlns="http://www.w3.org/2000/svg">
<path d="M11.6662 19.3881C11.7636 19.4609 11.8802 19.5 11.9996 19.5C12.1191 19.5 12.2356 19.4609 12.3331 19.3881L12.34 19.3833L12.3562 19.3711L12.4177 19.3241C12.471 19.2835 12.5467 19.2243 12.6446 19.1465C13.7877 18.2371 14.8667 17.2415 15.8731 16.1676C16.7562 15.2206 17.6538 14.1138 18.3338 12.9397C19.0108 11.7722 19.5 10.4878 19.5 9.20028C19.5 7.6719 19.05 6.47757 18.2538 5.66676C17.4615 4.86081 16.3923 4.5 15.2692 4.5C13.9423 4.5 12.7708 5.17541 12 6.21649C11.2292 5.17541 10.0569 4.5 8.73077 4.5C6.36154 4.5 4.5 6.63973 4.5 9.20028C4.5 10.4878 4.99 11.7714 5.66615 12.9397C6.34615 14.1138 7.24385 15.2206 8.12692 16.1684C9.19985 17.3126 10.3551 18.3676 11.5823 19.3241L11.6438 19.3711L11.66 19.3833L11.6662 19.3881Z" fill="black"/>
</svg>
