<svg width="34" height="38" viewBox="0 0 34 38" fill="none" xmlns="http://www.w3.org/2000/svg">
<path d="M0.333496 33.14V14.39C0.333496 13.7303 0.481412 13.1053 0.777246 12.515C1.07308 11.9247 1.48072 11.4386 2.00016 11.0566L14.5002 1.68165C15.2293 1.12609 16.0627 0.848312 17.0002 0.848312C17.9377 0.848312 18.771 1.12609 19.5002 1.68165L32.0002 11.0566C32.521 11.4386 32.9293 11.9247 33.2252 12.515C33.521 13.1053 33.6682 13.7303 33.6668 14.39V33.14C33.6668 34.2858 33.2585 35.2671 32.4418 36.0837C31.6252 36.9004 30.6446 37.308 29.5002 37.3066H23.2502C22.6599 37.3066 22.1654 37.1066 21.7668 36.7066C21.3682 36.3066 21.1682 35.8122 21.1668 35.2233V24.8066C21.1668 24.2164 20.9668 23.7219 20.5668 23.3233C20.1668 22.9247 19.6724 22.7247 19.0835 22.7233H14.9168C14.3266 22.7233 13.8321 22.9233 13.4335 23.3233C13.0349 23.7233 12.8349 24.2178 12.8335 24.8066V35.2233C12.8335 35.8136 12.6335 36.3087 12.2335 36.7087C11.8335 37.1087 11.3391 37.308 10.7502 37.3066H4.50016C3.35433 37.3066 2.37377 36.899 1.5585 36.0837C0.743218 35.2685 0.334885 34.2872 0.333496 33.14Z" fill="#335FEE" fill-opacity="0.71"/>
</svg>
