<svg width="30" height="31" viewBox="0 0 30 31" fill="none" xmlns="http://www.w3.org/2000/svg">
<path d="M15 16.4941C22.2188 16.4941 28.125 21.1816 28.125 24.9316C28.125 25.9262 27.7299 26.88 27.0266 27.5833C26.3234 28.2866 25.3696 28.6816 24.375 28.6816H5.625C4.63044 28.6816 3.67661 28.2866 2.97335 27.5833C2.27009 26.88 1.875 25.9262 1.875 24.9316C1.875 21.1816 7.78125 16.4941 15 16.4941ZM15 19.3066C11.9812 19.3066 9.255 20.2929 7.3275 21.6204C5.24625 23.0585 4.6875 24.431 4.6875 24.9316C4.6875 25.1803 4.78627 25.4187 4.96209 25.5946C5.1379 25.7704 5.37636 25.8691 5.625 25.8691H24.375C24.6236 25.8691 24.8621 25.7704 25.0379 25.5946C25.2137 25.4187 25.3125 25.1803 25.3125 24.9316C25.3125 24.431 24.7556 23.0566 22.6725 21.6204C20.745 20.2929 18.0169 19.3066 15 19.3066ZM15 2.43164C16.7405 2.43164 18.4097 3.12304 19.6404 4.35375C20.8711 5.58446 21.5625 7.25366 21.5625 8.99414C21.5625 10.7346 20.8711 12.4038 19.6404 13.6345C18.4097 14.8652 16.7405 15.5566 15 15.5566C13.2595 15.5566 11.5903 14.8652 10.3596 13.6345C9.1289 12.4038 8.4375 10.7346 8.4375 8.99414C8.4375 7.25366 9.1289 5.58446 10.3596 4.35375C11.5903 3.12304 13.2595 2.43164 15 2.43164ZM15 5.24414C14.0054 5.24414 13.0516 5.63923 12.3483 6.34249C11.6451 7.04575 11.25 7.99958 11.25 8.99414C11.25 9.9887 11.6451 10.9425 12.3483 11.6458C13.0516 12.3491 14.0054 12.7441 15 12.7441C15.9946 12.7441 16.9484 12.3491 17.6516 11.6458C18.3549 10.9425 18.75 9.9887 18.75 8.99414C18.75 7.99958 18.3549 7.04575 17.6516 6.34249C16.9484 5.63923 15.9946 5.24414 15 5.24414Z" fill="#335FEE" fill-opacity="0.71"/>
</svg>
