<svg width="24" height="24" viewBox="0 0 24 24" fill="none" xmlns="http://www.w3.org/2000/svg">
<path fill-rule="evenodd" clip-rule="evenodd" d="M7.5 7.5C7.5 6.30653 7.97411 5.16193 8.81802 4.31802C9.66193 3.47411 10.8065 3 12 3C13.1935 3 14.3381 3.47411 15.182 4.31802C16.0259 5.16193 16.5 6.30653 16.5 7.5C16.5 8.69347 16.0259 9.83807 15.182 10.682C14.3381 11.5259 13.1935 12 12 12C10.8065 12 9.66193 11.5259 8.81802 10.682C7.97411 9.83807 7.5 8.69347 7.5 7.5ZM4.5 21V20.25C4.5 18.4598 5.21116 16.7429 6.47703 15.477C7.7429 14.2112 9.45979 13.5 11.25 13.5H12.75C14.5402 13.5 16.2571 14.2112 17.523 15.477C18.7888 16.7429 19.5 18.4598 19.5 20.25V21H4.5Z" fill="black"/>
</svg>
