<svg width="35" height="36" viewBox="0 0 35 36" fill="none" xmlns="http://www.w3.org/2000/svg">
<path d="M18.3648 34.4746L18.3488 34.4775L18.2452 34.5285L18.216 34.5344L18.1956 34.5285L18.0921 34.4775C18.0765 34.4726 18.0649 34.4751 18.0571 34.4848L18.0513 34.4994L18.0265 35.1235L18.0338 35.1527L18.0483 35.1717L18.2 35.2796L18.2219 35.2854L18.2394 35.2796L18.391 35.1717L18.4085 35.1483L18.4144 35.1235L18.3896 34.5008C18.3857 34.4853 18.3774 34.4765 18.3648 34.4746ZM18.7513 34.3098L18.7323 34.3127L18.4625 34.4483L18.4479 34.4629L18.4435 34.4789L18.4698 35.106L18.4771 35.1235L18.4888 35.1337L18.7819 35.2694C18.8004 35.2742 18.8145 35.2703 18.8242 35.2577L18.83 35.2373L18.7804 34.3419C18.7756 34.3244 18.7658 34.3137 18.7513 34.3098ZM17.7085 34.3127C17.7021 34.3088 17.6944 34.3075 17.6871 34.3092C17.6798 34.3108 17.6733 34.3152 17.6692 34.3214L17.6604 34.3419L17.6108 35.2373C17.6118 35.2548 17.6201 35.2664 17.6356 35.2723L17.6575 35.2694L17.9506 35.1337L17.9652 35.1221L17.971 35.106L17.9958 34.4789L17.9915 34.4614L17.9769 34.4469L17.7085 34.3127Z" fill="#335FEE" fill-opacity="0.71"/>
<path d="M17.4998 3.47331C25.5542 3.47331 32.0832 10.0023 32.0832 18.0566C32.0832 26.111 25.5542 32.64 17.4998 32.64C9.44546 32.64 2.9165 26.111 2.9165 18.0566C2.9165 10.0023 9.44546 3.47331 17.4998 3.47331ZM17.4998 6.38998C14.4056 6.38998 11.4382 7.61914 9.25026 9.80707C7.06233 11.995 5.83317 14.9625 5.83317 18.0566C5.83317 21.1508 7.06233 24.1183 9.25026 26.3062C11.4382 28.4942 14.4056 29.7233 17.4998 29.7233C20.594 29.7233 23.5615 28.4942 25.7494 26.3062C27.9373 24.1183 29.1665 21.1508 29.1665 18.0566C29.1665 14.9625 27.9373 11.995 25.7494 9.80707C23.5615 7.61914 20.594 6.38998 17.4998 6.38998ZM17.4998 9.30665C17.857 9.30669 18.2018 9.43783 18.4687 9.67519C18.7356 9.91255 18.9062 10.2396 18.948 10.5944L18.9582 10.765V17.4529L22.9059 21.4006C23.1674 21.663 23.3193 22.0152 23.3306 22.3855C23.3419 22.7559 23.2118 23.1166 22.9668 23.3946C22.7217 23.6725 22.3801 23.8467 22.0112 23.8818C21.6424 23.9169 21.274 23.8104 20.9809 23.5837L20.8438 23.4627L16.4688 19.0877C16.2421 18.8608 16.0966 18.5656 16.0546 18.2477L16.0415 18.0566V10.765C16.0415 10.3782 16.1952 10.0073 16.4686 9.73378C16.7421 9.46029 17.1131 9.30665 17.4998 9.30665Z" fill="#335FEE" fill-opacity="0.71"/>
</svg>
