<svg width="260" height="99" viewBox="0 0 260 99" fill="none" xmlns="http://www.w3.org/2000/svg">
<path d="M77.944 32.352C77.848 33.312 77.704 34.384 77.512 35.568C77.32 36.72 77.016 37.904 76.6 39.12C76.216 40.304 75.688 41.456 75.016 42.576C74.344 43.696 73.48 44.704 72.424 45.6C71.368 46.464 70.088 47.168 68.584 47.712C67.112 48.224 65.352 48.48 63.304 48.48C61.224 48.48 59.448 48.192 57.976 47.616C56.504 47.008 55.304 46.192 54.376 45.168C53.448 44.112 52.776 42.896 52.36 41.52C51.944 40.144 51.736 38.672 51.736 37.104C51.736 36.4 51.768 35.456 51.832 34.272C51.896 33.056 51.976 31.744 52.072 30.336C52.2 28.928 52.328 27.472 52.456 25.968C52.584 24.432 52.696 22.976 52.792 21.6C52.92 20.224 53.032 18.992 53.128 17.904C53.224 16.784 53.288 15.936 53.32 15.36C53.352 14.752 53.432 14.368 53.56 14.208C53.688 14.016 53.88 13.92 54.136 13.92H56.776C58.728 13.92 60.04 14.336 60.712 15.168C61.384 16 61.72 17.232 61.72 18.864C61.72 18.96 61.688 19.392 61.624 20.16C61.592 20.896 61.528 21.808 61.432 22.896C61.368 23.984 61.288 25.168 61.192 26.448C61.128 27.728 61.048 28.944 60.952 30.096C60.888 31.248 60.824 32.256 60.76 33.12C60.728 33.984 60.712 34.56 60.712 34.848C60.712 35.392 60.728 36.016 60.76 36.72C60.824 37.424 60.952 38.096 61.144 38.736C61.368 39.376 61.704 39.92 62.152 40.368C62.632 40.784 63.304 40.992 64.168 40.992C65.256 40.992 66.136 40.624 66.808 39.888C67.512 39.152 68.04 38.272 68.392 37.248C68.776 36.224 69.032 35.184 69.16 34.128C69.32 33.072 69.432 32.208 69.496 31.536C69.624 29.904 69.752 28.224 69.88 26.496C70.04 24.768 70.168 23.152 70.264 21.648C70.392 20.144 70.488 18.832 70.552 17.712C70.616 16.592 70.648 15.824 70.648 15.408C70.648 14.768 70.696 14.368 70.792 14.208C70.888 14.016 71.096 13.92 71.416 13.92H74.056C75.144 13.92 75.992 14.016 76.6 14.208C77.24 14.4 77.72 14.656 78.04 14.976C78.36 15.296 78.552 15.664 78.616 16.08C78.712 16.496 78.76 16.928 78.76 17.376C78.76 17.792 78.728 18.576 78.664 19.728C78.632 20.88 78.584 22.192 78.52 23.664C78.456 25.136 78.376 26.656 78.28 28.224C78.184 29.792 78.072 31.168 77.944 32.352ZM98.9766 43.776C98.9766 43.072 99.0246 42.16 99.1206 41.04C99.2486 39.888 99.3606 38.688 99.4566 37.44C99.5846 36.16 99.6966 34.928 99.7926 33.744C99.9206 32.56 99.9846 31.568 99.9846 30.768C99.9846 29.936 99.7766 29.2 99.3606 28.56C98.9766 27.888 98.2086 27.552 97.0566 27.552C95.9366 27.552 95.0086 27.824 94.2726 28.368C93.5366 28.912 92.9126 29.904 92.4006 31.344C91.9206 32.784 91.5206 34.768 91.2006 37.296C90.8806 39.824 90.5766 43.072 90.2886 47.04C90.2566 47.424 90.1766 47.68 90.0486 47.808C89.9206 47.936 89.6486 48 89.2326 48H87.5046C86.5126 48 85.6966 47.904 85.0566 47.712C84.4486 47.488 83.9526 47.184 83.5686 46.8C83.2166 46.416 82.9606 45.952 82.8006 45.408C82.6726 44.832 82.6086 44.176 82.6086 43.44C82.6086 42.96 82.6246 42.288 82.6566 41.424C82.7206 40.528 82.8166 39.312 82.9446 37.776C83.0726 36.208 83.2166 34.24 83.3766 31.872C83.5686 29.472 83.7926 26.512 84.0486 22.992C84.0806 22.288 84.1606 21.872 84.2886 21.744C84.3846 21.648 84.6406 21.6 85.0566 21.6H86.9286C87.8886 21.6 88.6726 21.712 89.2806 21.936C89.9206 22.16 90.4326 22.464 90.8166 22.848C91.2006 23.2 91.4726 23.632 91.6326 24.144C91.7926 24.624 91.8886 25.12 91.9206 25.632C92.9126 23.936 94.0486 22.768 95.3286 22.128C96.6086 21.456 98.2086 21.12 100.129 21.12C101.473 21.12 102.641 21.264 103.633 21.552C104.625 21.84 105.441 22.336 106.081 23.04C106.753 23.712 107.249 24.608 107.569 25.728C107.889 26.816 108.049 28.176 108.049 29.808C108.049 30.32 108.017 31.056 107.953 32.016C107.889 32.976 107.809 34.032 107.713 35.184C107.617 36.304 107.505 37.488 107.377 38.736C107.281 39.952 107.185 41.088 107.089 42.144C106.993 43.2 106.913 44.128 106.849 44.928C106.785 45.728 106.753 46.256 106.753 46.512C106.753 47.216 106.673 47.648 106.513 47.808C106.353 47.936 106.001 48 105.457 48H103.921C102.897 48 102.065 47.904 101.425 47.712C100.785 47.52 100.289 47.248 99.9366 46.896C99.5846 46.544 99.3286 46.112 99.1686 45.6C99.0406 45.056 98.9766 44.448 98.9766 43.776ZM117.799 48C115.975 48 114.679 47.648 113.911 46.944C113.175 46.208 112.807 45.136 112.807 43.728C112.807 43.312 112.823 42.656 112.855 41.76C112.919 40.832 112.999 39.744 113.095 38.496C113.191 37.248 113.287 35.888 113.383 34.416C113.511 32.944 113.639 31.44 113.767 29.904C113.927 28.016 114.055 26.4 114.151 25.056C114.279 23.68 114.375 22.512 114.439 21.552C114.503 20.56 114.551 19.744 114.583 19.104C114.647 18.432 114.679 17.856 114.679 17.376C114.711 16.864 114.727 16.4 114.727 15.984C114.759 15.568 114.775 15.12 114.775 14.64C114.775 14.384 114.855 14.208 115.015 14.112C115.175 13.984 115.335 13.92 115.495 13.92C116.327 13.92 117.239 13.904 118.231 13.872C119.223 13.808 120.215 13.744 121.207 13.68C122.199 13.616 123.159 13.568 124.087 13.536C125.015 13.472 125.831 13.44 126.535 13.44C128.583 13.44 130.343 13.696 131.815 14.208C133.287 14.688 134.471 15.408 135.367 16.368C136.295 17.296 136.967 18.432 137.383 19.776C137.831 21.12 138.055 22.656 138.055 24.384C138.055 26.272 137.799 28.096 137.287 29.856C136.807 31.584 136.039 33.12 134.983 34.464C133.927 35.808 132.567 36.88 130.903 37.68C129.239 38.48 127.255 38.88 124.951 38.88C123.575 38.88 122.407 38.736 121.447 38.448L120.775 47.28C120.743 47.536 120.679 47.728 120.583 47.856C120.487 47.952 120.295 48 120.007 48H117.799ZM125.575 20.64C125.159 20.64 124.695 20.672 124.183 20.736C123.671 20.768 123.127 20.816 122.551 20.88C122.487 22.224 122.407 23.856 122.311 25.776C122.215 27.696 122.087 29.712 121.927 31.824C122.407 31.952 122.871 32.048 123.319 32.112C123.799 32.144 124.231 32.16 124.615 32.16C125.735 32.16 126.631 31.904 127.303 31.392C128.007 30.848 128.551 30.192 128.935 29.424C129.319 28.656 129.575 27.856 129.703 27.024C129.831 26.192 129.895 25.472 129.895 24.864C129.895 23.488 129.575 22.448 128.935 21.744C128.327 21.008 127.207 20.64 125.575 20.64ZM146.114 48.432C144.13 48.432 142.706 47.904 141.842 46.848C140.978 45.792 140.546 44.048 140.546 41.616C140.546 41.232 140.562 40.752 140.594 40.176C140.658 39.6 140.722 38.864 140.786 37.968C140.882 37.04 140.994 35.904 141.122 34.56C141.25 33.216 141.378 31.584 141.506 29.664C141.666 27.744 141.826 25.488 141.986 22.896C142.178 20.304 142.37 17.296 142.562 13.872C142.594 13.168 142.674 12.752 142.802 12.624C142.898 12.528 143.154 12.48 143.57 12.48H145.442C146.402 12.48 147.202 12.592 147.842 12.816C148.482 13.04 148.994 13.344 149.378 13.728C149.762 14.112 150.034 14.56 150.194 15.072C150.354 15.552 150.434 16.064 150.434 16.608C150.434 17.248 150.386 18.176 150.29 19.392C150.226 20.576 150.13 21.92 150.002 23.424C149.874 24.928 149.746 26.496 149.618 28.128C149.49 29.76 149.362 31.328 149.234 32.832C149.106 34.304 148.994 35.632 148.898 36.816C148.834 38 148.802 38.896 148.802 39.504C148.802 40.336 148.946 40.928 149.234 41.28C149.554 41.632 149.89 41.888 150.242 42.048C150.594 42.176 150.914 42.272 151.202 42.336C151.522 42.368 151.682 42.464 151.682 42.624C151.682 43.328 151.602 44.032 151.442 44.736C151.282 45.408 150.994 46.032 150.578 46.608C150.162 47.152 149.586 47.6 148.85 47.952C148.146 48.272 147.234 48.432 146.114 48.432ZM164.199 25.68C164.199 26.352 164.135 27.296 164.007 28.512C163.911 29.728 163.799 30.992 163.671 32.304C163.575 33.616 163.463 34.848 163.335 36C163.239 37.152 163.191 37.984 163.191 38.496C163.191 39.616 163.463 40.496 164.007 41.136C164.583 41.744 165.367 42.048 166.359 42.048C167.223 42.048 167.943 41.712 168.519 41.04C169.127 40.336 169.607 39.44 169.959 38.352C170.343 37.232 170.647 35.968 170.871 34.56C171.095 33.152 171.255 31.728 171.351 30.288C171.479 28.848 171.575 27.456 171.639 26.112C171.735 24.736 171.831 23.552 171.927 22.56C171.959 22.304 172.055 22.08 172.215 21.888C172.375 21.696 172.631 21.6 172.983 21.6H174.711C175.703 21.6 176.503 21.712 177.111 21.936C177.751 22.128 178.247 22.416 178.599 22.8C178.983 23.184 179.239 23.664 179.367 24.24C179.527 24.784 179.607 25.424 179.607 26.16C179.607 26.64 179.575 27.328 179.51 28.224C179.479 29.088 179.399 30.304 179.271 31.872C179.143 33.408 178.983 35.376 178.791 37.776C178.631 40.144 178.423 43.088 178.167 46.608C178.103 47.28 178.023 47.68 177.927 47.808C177.863 47.936 177.607 48 177.159 48H175.287C174.327 48 173.527 47.888 172.887 47.664C172.279 47.44 171.783 47.152 171.399 46.8C171.015 46.448 170.743 46.032 170.583 45.552C170.423 45.072 170.327 44.576 170.295 44.064C169.815 44.896 169.271 45.6 168.663 46.176C168.087 46.752 167.479 47.216 166.839 47.568C166.199 47.888 165.543 48.112 164.871 48.24C164.199 48.4 163.543 48.48 162.903 48.48C161.687 48.48 160.599 48.288 159.639 47.904C158.679 47.488 157.863 46.944 157.191 46.272C156.551 45.6 156.055 44.8 155.703 43.872C155.351 42.944 155.175 41.952 155.175 40.896C155.175 40.48 155.191 39.808 155.223 38.88C155.287 37.92 155.351 36.848 155.415 35.664C155.511 34.48 155.607 33.232 155.703 31.92C155.799 30.576 155.879 29.312 155.943 28.128C156.039 26.944 156.119 25.904 156.183 25.008C156.279 24.112 156.343 23.472 156.375 23.088C156.439 22.512 156.567 22.128 156.759 21.936C156.951 21.712 157.271 21.6 157.719 21.6H159.255C160.247 21.6 161.063 21.696 161.703 21.888C162.343 22.08 162.839 22.352 163.191 22.704C163.575 23.056 163.831 23.488 163.959 24C164.119 24.48 164.199 25.04 164.199 25.68ZM199.508 42.336C198.708 43.776 197.732 44.848 196.58 45.552C195.428 46.224 193.988 46.56 192.26 46.56C190.948 46.56 189.748 46.352 188.66 45.936C187.572 45.52 186.644 44.864 185.876 43.968C185.108 43.072 184.5 41.952 184.052 40.608C183.636 39.232 183.428 37.6 183.428 35.712C183.428 34.176 183.588 32.56 183.908 30.864C184.228 29.136 184.804 27.552 185.636 26.112C186.5 24.672 187.668 23.488 189.14 22.56C190.612 21.6 192.5 21.12 194.804 21.12C195.764 21.12 196.58 21.232 197.252 21.456C197.956 21.648 198.548 21.92 199.028 22.272C199.54 22.624 199.94 23.04 200.228 23.52C200.548 24 200.788 24.512 200.948 25.056C200.948 25.088 200.948 24.976 200.948 24.72C200.98 24.432 201.012 24.112 201.044 23.76C201.076 23.408 201.092 23.072 201.092 22.752C201.124 22.4 201.14 22.176 201.14 22.08C201.172 21.76 201.38 21.6 201.764 21.6H203.972C205.636 21.6 206.836 21.952 207.572 22.656C208.34 23.328 208.724 24.624 208.724 26.544C208.724 26.8 208.708 27.392 208.676 28.32C208.644 29.216 208.58 30.304 208.484 31.584C208.42 32.864 208.324 34.288 208.196 35.856C208.068 37.392 207.924 38.944 207.764 40.512C207.604 42.08 207.428 43.584 207.236 45.024C207.044 46.464 206.836 47.728 206.612 48.816C206.388 49.904 206.004 50.96 205.46 51.984C204.916 53.008 204.148 53.92 203.156 54.72C202.164 55.52 200.884 56.16 199.316 56.64C197.78 57.12 195.892 57.36 193.652 57.36C191.956 57.36 190.468 57.2 189.188 56.88C187.94 56.56 186.9 56.128 186.068 55.584C185.236 55.072 184.596 54.48 184.148 53.808C183.732 53.136 183.524 52.464 183.524 51.792C183.524 51.184 183.652 50.656 183.908 50.208C184.164 49.76 184.5 49.392 184.916 49.104C185.332 48.816 185.78 48.592 186.26 48.432C186.772 48.304 187.252 48.24 187.7 48.24C188.244 48.24 188.644 48.4 188.9 48.72C189.156 49.04 189.444 49.392 189.764 49.776C190.084 50.192 190.532 50.56 191.108 50.88C191.684 51.2 192.58 51.36 193.796 51.36C195.908 51.36 197.38 50.576 198.212 49.008C199.076 47.472 199.508 45.248 199.508 42.336ZM195.476 40.176C196.628 40.176 197.524 39.904 198.164 39.36C198.836 38.816 199.348 38.16 199.7 37.392C200.052 36.624 200.276 35.824 200.372 34.992C200.468 34.16 200.516 33.44 200.516 32.832C200.516 30.912 200.212 29.552 199.604 28.752C199.028 27.92 198.148 27.504 196.964 27.504C195.78 27.504 194.852 27.824 194.18 28.464C193.508 29.104 192.996 29.872 192.644 30.768C192.324 31.632 192.116 32.512 192.02 33.408C191.924 34.272 191.876 34.944 191.876 35.424C191.876 37.024 192.148 38.224 192.692 39.024C193.236 39.792 194.164 40.176 195.476 40.176Z" fill="#335FEE"/>
<path d="M211 23H206L213 9V17H218L211 31V23Z" fill="#FFCF0D"/>
</svg>
